<?xml version="1.0" standalone="no"?>
<!DOCTYPE svg PUBLIC "-//W3C//DTD SVG 1.1//EN" "http://www.w3.org/Graphics/SVG/1.1/DTD/svg11.dtd" >
<svg>
<metadata>
Created by FontForge 20120731 at Fri Nov 21 08:02:03 2014
 By Orthosie Webhosting
Copyright (c) 2011 by Riley Cran. All rights reserved.
</metadata>
<defs>
<font id="GovernorRegular" horiz-adv-x="736" >
  <font-face 
    font-family="GovernorRegular"
    font-weight="400"
    font-stretch="normal"
    units-per-em="1000"
    panose-1="2 0 0 0 0 0 0 0 0 0"
    ascent="773"
    descent="-227"
    x-height="732"
    cap-height="732"
    bbox="4 -8 908 746"
    underline-thickness="50"
    underline-position="-50"
    unicode-range="U+0020-007A"
  />
<missing-glyph horiz-adv-x="418" 
 />
    <glyph glyph-name=".notdef" horiz-adv-x="418" 
 />
    <glyph glyph-name=".null" horiz-adv-x="0" 
 />
    <glyph glyph-name="nonmarkingreturn" horiz-adv-x="333" 
 />
    <glyph glyph-name="space" unicode=" " horiz-adv-x="418" 
 />
    <glyph glyph-name="A" unicode="A" horiz-adv-x="708" 
d="M542 -1l-38 108h-296l-38 -108h-166l262 734h180l262 -734h-166zM262 258h188l-94 263z" />
    <glyph glyph-name="B" unicode="B" horiz-adv-x="695" 
d="M552 391q38 -22 59 -53t30.5 -59.5t11.5 -49.5t2 -23q0 -53 -15.5 -88.5t-41 -58.5t-58.5 -35.5t-68 -18t-70 -6t-64 -0.5h-254v733h254q37 0 80.5 -12.5t80.5 -41t62 -74t25 -110.5q0 -20 -2.5 -33.5t-7 -25t-10.5 -21.5t-14 -23zM241 438h97q12 0 28 -0.5t29.5 3
t23 15.5t9.5 38q0 28 -11 44t-26 24t-30 10t-23 2h-97v-136zM351 156q68 0 98.5 12.5t30.5 48.5q0 35 -30.5 47t-98.5 12h-110v-120h110z" />
    <glyph glyph-name="C" unicode="C" horiz-adv-x="750" 
d="M714 174q-24 -39 -57 -71t-73 -55t-86 -35.5t-95 -12.5q-76 0 -142.5 29t-116 79t-78.5 116.5t-29 142.5t29 142.5t78.5 116.5t116 79t142.5 29q49 0 95 -12.5t86 -35.5t73 -55.5t57 -71.5l-112 -112q-12 30 -31.5 55t-45.5 43t-57 28t-65 10q-44 0 -83.5 -17
t-68.5 -46.5t-46 -68.5t-17 -84t17 -84t46 -68.5t68.5 -46.5t83.5 -17q34 0 65 10t57 28t45.5 42.5t31.5 54.5z" />
    <glyph glyph-name="D" unicode="D" horiz-adv-x="694" 
d="M458 691q33 -15 67.5 -39.5t62 -63t45.5 -93t18 -129.5q0 -92 -28 -154.5t-72.5 -103.5t-99.5 -63t-109.5 -32.5t-103 -12t-78.5 -1.5h-75v735h75q32 0 68.5 -0.5t75.5 -4.5t78 -13t76 -25zM236 152q71 5 121 19.5t82 40.5t46.5 64t14.5 90q0 61 -16 101t-49 64.5
t-82.5 35.5t-116.5 14v-429z" />
    <glyph glyph-name="E" unicode="E" horiz-adv-x="667" 
d="M593 581h-343v-149h330v-153h-330v-126h343v-153h-495v733h495v-152v0z" />
    <glyph glyph-name="F" unicode="F" horiz-adv-x="625" 
d="M576 581h-341v-165h328v-151h-328v-266h-151v733h492v-151v0z" />
    <glyph glyph-name="G" unicode="G" horiz-adv-x="750" 
d="M405 403h319v-215q-24 -42 -57.5 -76.5t-74.5 -59.5t-88.5 -38.5t-98.5 -13.5q-75 0 -141.5 29t-116 78.5t-78.5 116t-29 142.5t29 142.5t78.5 116t116 78.5t141.5 29q97 0 176.5 -45.5t129.5 -120.5l-110 -112q-26 57 -78 92t-118 35q-44 0 -83 -17t-68 -46t-46 -68
t-17 -84t17 -84t46 -68.5t68 -46.5t83 -17q24 0 49.5 7t50.5 20.5t46 32.5t36 43h-182v150z" />
    <glyph glyph-name="H" unicode="H" 
d="M506 732h154v-734h-154v269h-255v-269h-153v734h153v-312h255v312v0z" />
    <glyph glyph-name="I" unicode="I" horiz-adv-x="320" 
d="M84 732h152v-733h-152v733v0z" />
    <glyph glyph-name="J" unicode="J" horiz-adv-x="590" 
d="M519 736v-401q0 -44 -14 -102t-48 -110.5t-91.5 -88.5t-144.5 -36q-48 0 -95 11.5t-86 40.5l117 117q10 -10 27 -11.5t37 -1.5q35 0 59.5 10.5t40.5 27.5t24.5 38t12.5 41t4.5 37t0.5 27v401h156z" />
    <glyph glyph-name="K" unicode="K" horiz-adv-x="764" 
d="M661 734q0 -56 -7.5 -103.5t-20 -87t-28.5 -71t-32 -55.5q-39 -57 -87 -92q47 0 83 -14t62.5 -37t44.5 -52.5t30 -59.5q27 -72 32 -163h-151q0 33 -7 58.5t-18 44.5t-25 32t-29 22q-34 20 -78 23h-181v-180h-150v735h150v-334q47 0 83.5 14.5t63.5 37.5t46.5 53t32.5 62
q30 73 38 167h148z" />
    <glyph glyph-name="L" unicode="L" horiz-adv-x="625" 
d="M568 -1h-498v734h153v-580h345v-154v0z" />
    <glyph glyph-name="M" unicode="M" horiz-adv-x="930" 
d="M256 302v-303h-156v735h162l198 -502l195 502h161v-735h-156v298l-123 -298h-154l-127 303v0z" />
    <glyph glyph-name="N" unicode="N" horiz-adv-x="834" 
d="M587 258v475h156v-734h-172l-316 476v-476h-156v735h172l316 -476v0z" />
    <glyph glyph-name="O" unicode="O" horiz-adv-x="812" 
d="M419 0q-76 0 -142.5 29t-116 79t-78.5 116.5t-29 142.5t29 142.5t78.5 116.5t116 79t142.5 29t142.5 -29t116 -79t78.5 -116.5t29 -142.5t-29 -142.5t-78.5 -116.5t-116 -79t-142.5 -29zM419 583q-45 0 -84 -17t-68 -46.5t-46 -68.5t-17 -84t17 -84t46 -68.5t68 -46.5
t84 -17q44 0 83 17t68.5 46.5t46.5 68.5t17 84t-17 84t-46.5 68.5t-68.5 46.5t-83 17z" />
    <glyph glyph-name="P" unicode="P" 
d="M251 -1h-151v735h356q36 0 78 -14t77.5 -45t59.5 -81t24 -122q0 -141 -81 -219q-26 -26 -54 -40t-52.5 -21t-42 -8t-23.5 -1h-191v-184zM251 334h194h-1q11 0 28 4t32.5 18.5t27 41.5t11.5 74q0 35 -9 56.5t-22.5 33t-29 16t-27.5 4.5h-204v-248z" />
    <glyph glyph-name="Q" unicode="Q" horiz-adv-x="931" 
d="M833 368q0 -59 -17.5 -112t-49.5 -98l53 -52l-106 -107l-56 56q-42 -25 -89.5 -39t-99.5 -14q-75 0 -141.5 29t-116 78.5t-78.5 116t-29 142.5t29 142.5t78.5 116t116 78.5t141.5 29t141.5 -29t116 -78.5t78.5 -116t29 -142.5zM468 153q40 0 77 14l-41 41l106 107l47 -48
q25 48 25 101q0 45 -17 84t-46 68.5t-68 46.5t-83 17t-83.5 -17t-68.5 -46.5t-46 -68.5t-17 -84t17 -84t46 -68t68.5 -46t83.5 -17z" />
    <glyph glyph-name="R" unicode="R" horiz-adv-x="749" 
d="M629 260q29 -26 50 -58.5t34.5 -67t19.5 -69.5t6 -66h-75h-76q0 7 -1.5 23.5t-6.5 36.5t-15 41t-27.5 39t-43.5 29t-63 11h-181v-180h-150v735h331q4 0 22 -1.5t43.5 -9t55.5 -22.5t58 -43q83 -83 83 -228q0 -57 -17.5 -99t-46.5 -71zM431 330q12 0 31 3.5t37 14t30.5 30
t12.5 52.5q0 52 -13.5 82.5t-32 46t-37.5 20t-29 4.5h-180v-253h181z" />
    <glyph glyph-name="S" unicode="S" horiz-adv-x="687" 
d="M333 -8q-56 0 -105 18t-86.5 48t-59 70.5t-21.5 85.5h152q0 -9 8.5 -21t24 -23t37.5 -18.5t50 -7.5q45 0 71 10.5t39 23t16.5 23l3.5 10.5q0 12 -1.5 24t-9.5 22q-14 17 -48 26.5t-84 9.5q-38 0 -68.5 7t-53.5 17.5t-40 23.5t-28 26q-22 24 -34 50.5t-17 50t-5.5 41
t-0.5 25.5q0 7 2 22.5t8.5 34.5t18 40.5t31.5 41.5q73 73 203 73q128 0 200 -75q25 -26 39 -54t20 -52t7 -41t1 -21l-152 5v-2q0 12 -4 27.5t-16 29t-35 22.5t-60 9q-36 0 -57.5 -7t-33 -17t-15.5 -21t-4 -18v-7l-1 -1q0 -10 2 -20q2 -8 5 -17.5t11 -17.5q23 -23 77 -23
q142 0 219 -61.5t77 -173.5q0 -32 -15.5 -70t-49 -71t-87.5 -55t-131 -22z" />
    <glyph glyph-name="T" unicode="T" horiz-adv-x="604" 
d="M560 733v-152h-170v-582h-153v582h-170v152h493v0z" />
    <glyph glyph-name="U" unicode="U" horiz-adv-x="778" 
d="M693 733v-400q0 -29 -6 -64.5t-19.5 -72.5t-36 -72.5t-55.5 -63t-77.5 -44t-102.5 -16.5h-1q-60 0 -111 20t-89 59q-36 36 -55.5 77.5t-28.5 79t-11 65t-2 33.5v399h153v-400q0 -8 1 -24t6 -36t14 -41t25.5 -39t40.5 -29t58 -11q51 0 79.5 24t43 55t18 61t3.5 41v399h153
z" />
    <glyph glyph-name="V" unicode="V" horiz-adv-x="778" 
d="M481 0h-180l-262 733h166l186 -522l186 522h166l-262 -733v0z" />
    <glyph glyph-name="W" unicode="W" horiz-adv-x="931" 
d="M373 -1h-155l-171 735h154l96 -414l100 414h155l85 -417l116 417h155l-205 -735h-155l-80 395l-95 -395v0z" />
    <glyph glyph-name="X" unicode="X" horiz-adv-x="847" 
d="M748 733l-229 -379l214 -353h-177l-125 207l-125 -207h-177l214 353l-229 379h176l141 -234l141 234h176v0z" />
    <glyph glyph-name="Y" unicode="Y" 
d="M677 732l-233 -499v-232h-153v230l-234 501h165l146 -355l146 355h163v0z" />
    <glyph glyph-name="Z" unicode="Z" horiz-adv-x="778" 
d="M643 -2h-541l326 586h-301v149h556l-326 -585h286v-150v0z" />
    <glyph glyph-name="a" unicode="a" horiz-adv-x="708" 
d="M542 -1l-38 108h-296l-38 -108h-166l262 734h180l262 -734h-166zM262 258h188l-94 263z" />
    <glyph glyph-name="b" unicode="b" horiz-adv-x="695" 
d="M552 391q38 -22 59 -53t30.5 -59.5t11.5 -49.5t2 -23q0 -53 -15.5 -88.5t-41 -58.5t-58.5 -35.5t-68 -18t-70 -6t-64 -0.5h-254v733h254q37 0 80.5 -12.5t80.5 -41t62 -74t25 -110.5q0 -20 -2.5 -33.5t-7 -25t-10.5 -21.5t-14 -23zM241 438h97q12 0 28 -0.5t29.5 3
t23 15.5t9.5 38q0 28 -11 44t-26 24t-30 10t-23 2h-97v-136zM351 156q68 0 98.5 12.5t30.5 48.5q0 35 -30.5 47t-98.5 12h-110v-120h110z" />
    <glyph glyph-name="c" unicode="c" horiz-adv-x="750" 
d="M714 174q-24 -39 -57 -71t-73 -55t-86 -35.5t-95 -12.5q-76 0 -142.5 29t-116 79t-78.5 116.5t-29 142.5t29 142.5t78.5 116.5t116 79t142.5 29q49 0 95 -12.5t86 -35.5t73 -55.5t57 -71.5l-112 -112q-12 30 -31.5 55t-45.5 43t-57 28t-65 10q-44 0 -83.5 -17
t-68.5 -46.5t-46 -68.5t-17 -84t17 -84t46 -68.5t68.5 -46.5t83.5 -17q34 0 65 10t57 28t45.5 42.5t31.5 54.5z" />
    <glyph glyph-name="d" unicode="d" horiz-adv-x="694" 
d="M458 691q33 -15 67.5 -39.5t62 -63t45.5 -93t18 -129.5q0 -92 -28 -154.5t-72.5 -103.5t-99.5 -63t-109.5 -32.5t-103 -12t-78.5 -1.5h-75v735h75q32 0 68.5 -0.5t75.5 -4.5t78 -13t76 -25zM236 152q71 5 121 19.5t82 40.5t46.5 64t14.5 90q0 61 -16 101t-49 64.5
t-82.5 35.5t-116.5 14v-429z" />
    <glyph glyph-name="e" unicode="e" horiz-adv-x="667" 
d="M593 581h-343v-149h330v-153h-330v-126h343v-153h-495v733h495v-152v0z" />
    <glyph glyph-name="f" unicode="f" horiz-adv-x="625" 
d="M576 581h-341v-165h328v-151h-328v-266h-151v733h492v-151v0z" />
    <glyph glyph-name="g" unicode="g" horiz-adv-x="750" 
d="M405 403h319v-215q-24 -42 -57.5 -76.5t-74.5 -59.5t-88.5 -38.5t-98.5 -13.5q-75 0 -141.5 29t-116 78.5t-78.5 116t-29 142.5t29 142.5t78.5 116t116 78.5t141.5 29q97 0 176.5 -45.5t129.5 -120.5l-110 -112q-26 57 -78 92t-118 35q-44 0 -83 -17t-68 -46t-46 -68
t-17 -84t17 -84t46 -68.5t68 -46.5t83 -17q24 0 49.5 7t50.5 20.5t46 32.5t36 43h-182v150z" />
    <glyph glyph-name="h" unicode="h" 
d="M506 732h154v-734h-154v269h-255v-269h-153v734h153v-312h255v312v0z" />
    <glyph glyph-name="i" unicode="i" horiz-adv-x="320" 
d="M84 732h152v-733h-152v733v0z" />
    <glyph glyph-name="j" unicode="j" horiz-adv-x="590" 
d="M519 736v-401q0 -44 -14 -102t-48 -110.5t-91.5 -88.5t-144.5 -36q-48 0 -95 11.5t-86 40.5l117 117q10 -10 27 -11.5t37 -1.5q35 0 59.5 10.5t40.5 27.5t24.5 38t12.5 41t4.5 37t0.5 27v401h156z" />
    <glyph glyph-name="k" unicode="k" horiz-adv-x="764" 
d="M661 734q0 -56 -7.5 -103.5t-20 -87t-28.5 -71t-32 -55.5q-39 -57 -87 -92q47 0 83 -14t62.5 -37t44.5 -52.5t30 -59.5q27 -72 32 -163h-151q0 33 -7 58.5t-18 44.5t-25 32t-29 22q-34 20 -78 23h-181v-180h-150v735h150v-334q47 0 83.5 14.5t63.5 37.5t46.5 53t32.5 62
q30 73 38 167h148z" />
    <glyph glyph-name="l" unicode="l" horiz-adv-x="625" 
d="M568 -1h-498v734h153v-580h345v-154v0z" />
    <glyph glyph-name="m" unicode="m" horiz-adv-x="930" 
d="M256 302v-303h-156v735h162l198 -502l195 502h161v-735h-156v298l-123 -298h-154l-127 303v0z" />
    <glyph glyph-name="n" unicode="n" horiz-adv-x="834" 
d="M587 258v475h156v-734h-172l-316 476v-476h-156v735h172l316 -476v0z" />
    <glyph glyph-name="o" unicode="o" horiz-adv-x="812" 
d="M419 0q-76 0 -142.5 29t-116 79t-78.5 116.5t-29 142.5t29 142.5t78.5 116.5t116 79t142.5 29t142.5 -29t116 -79t78.5 -116.5t29 -142.5t-29 -142.5t-78.5 -116.5t-116 -79t-142.5 -29zM419 583q-45 0 -84 -17t-68 -46.5t-46 -68.5t-17 -84t17 -84t46 -68.5t68 -46.5
t84 -17q44 0 83 17t68.5 46.5t46.5 68.5t17 84t-17 84t-46.5 68.5t-68.5 46.5t-83 17z" />
    <glyph glyph-name="p" unicode="p" 
d="M251 -1h-151v735h356q36 0 78 -14t77.5 -45t59.5 -81t24 -122q0 -141 -81 -219q-26 -26 -54 -40t-52.5 -21t-42 -8t-23.5 -1h-191v-184zM251 334h194h-1q11 0 28 4t32.5 18.5t27 41.5t11.5 74q0 35 -9 56.5t-22.5 33t-29 16t-27.5 4.5h-204v-248z" />
    <glyph glyph-name="q" unicode="q" horiz-adv-x="931" 
d="M833 368q0 -59 -17.5 -112t-49.5 -98l53 -52l-106 -107l-56 56q-42 -25 -89.5 -39t-99.5 -14q-75 0 -141.5 29t-116 78.5t-78.5 116t-29 142.5t29 142.5t78.5 116t116 78.5t141.5 29t141.5 -29t116 -78.5t78.5 -116t29 -142.5zM468 153q40 0 77 14l-41 41l106 107l47 -48
q25 48 25 101q0 45 -17 84t-46 68.5t-68 46.5t-83 17t-83.5 -17t-68.5 -46.5t-46 -68.5t-17 -84t17 -84t46 -68t68.5 -46t83.5 -17z" />
    <glyph glyph-name="r" unicode="r" horiz-adv-x="749" 
d="M629 260q29 -26 50 -58.5t34.5 -67t19.5 -69.5t6 -66h-75h-76q0 7 -1.5 23.5t-6.5 36.5t-15 41t-27.5 39t-43.5 29t-63 11h-181v-180h-150v735h331q4 0 22 -1.5t43.5 -9t55.5 -22.5t58 -43q83 -83 83 -228q0 -57 -17.5 -99t-46.5 -71zM431 330q12 0 31 3.5t37 14t30.5 30
t12.5 52.5q0 52 -13.5 82.5t-32 46t-37.5 20t-29 4.5h-180v-253h181z" />
    <glyph glyph-name="s" unicode="s" horiz-adv-x="687" 
d="M333 -8q-56 0 -105 18t-86.5 48t-59 70.5t-21.5 85.5h152q0 -9 8.5 -21t24 -23t37.5 -18.5t50 -7.5q45 0 71 10.5t39 23t16.5 23l3.5 10.5q0 12 -1.5 24t-9.5 22q-14 17 -48 26.5t-84 9.5q-38 0 -68.5 7t-53.5 17.5t-40 23.5t-28 26q-22 24 -34 50.5t-17 50t-5.5 41
t-0.5 25.5q0 7 2 22.5t8.5 34.5t18 40.5t31.5 41.5q73 73 203 73q128 0 200 -75q25 -26 39 -54t20 -52t7 -41t1 -21l-152 5v-2q0 12 -4 27.5t-16 29t-35 22.5t-60 9q-36 0 -57.5 -7t-33 -17t-15.5 -21t-4 -18v-7l-1 -1q0 -10 2 -20q2 -8 5 -17.5t11 -17.5q23 -23 77 -23
q142 0 219 -61.5t77 -173.5q0 -32 -15.5 -70t-49 -71t-87.5 -55t-131 -22z" />
    <glyph glyph-name="t" unicode="t" horiz-adv-x="604" 
d="M560 733v-152h-170v-582h-153v582h-170v152h493v0z" />
    <glyph glyph-name="u" unicode="u" horiz-adv-x="778" 
d="M693 733v-400q0 -29 -6 -64.5t-19.5 -72.5t-36 -72.5t-55.5 -63t-77.5 -44t-102.5 -16.5h-1q-60 0 -111 20t-89 59q-36 36 -55.5 77.5t-28.5 79t-11 65t-2 33.5v399h153v-400q0 -8 1 -24t6 -36t14 -41t25.5 -39t40.5 -29t58 -11q51 0 79.5 24t43 55t18 61t3.5 41v399h153
z" />
    <glyph glyph-name="v" unicode="v" horiz-adv-x="778" 
d="M481 0h-180l-262 733h166l186 -522l186 522h166l-262 -733v0z" />
    <glyph glyph-name="w" unicode="w" horiz-adv-x="931" 
d="M373 -1h-155l-171 735h154l96 -414l100 414h155l85 -417l116 417h155l-205 -735h-155l-80 395l-95 -395v0z" />
    <glyph glyph-name="x" unicode="x" horiz-adv-x="847" 
d="M748 733l-229 -379l214 -353h-177l-125 207l-125 -207h-177l214 353l-229 379h176l141 -234l141 234h176v0z" />
    <glyph glyph-name="y" unicode="y" 
d="M677 732l-233 -499v-232h-153v230l-234 501h165l146 -355l146 355h163v0z" />
    <glyph glyph-name="z" unicode="z" horiz-adv-x="778" 
d="M643 -2h-541l326 586h-301v149h556l-326 -585h286v-150v0z" />
    <glyph glyph-name="a.001" horiz-adv-x="708" 
d="M542 -1l-38 108h-296l-38 -108h-166l262 734h180l262 -734h-166zM262 258h188l-94 263z" />
    <glyph glyph-name="b.001" horiz-adv-x="695" 
d="M552 391q38 -22 59 -53t30.5 -59.5t11.5 -49.5t2 -23q0 -53 -15.5 -88.5t-41 -58.5t-58.5 -35.5t-68 -18t-70 -6t-64 -0.5h-254v733h254q37 0 80.5 -12.5t80.5 -41t62 -74t25 -110.5q0 -20 -2.5 -33.5t-7 -25t-10.5 -21.5t-14 -23zM241 438h97q12 0 28 -0.5t29.5 3
t23 15.5t9.5 38q0 28 -11 44t-26 24t-30 10t-23 2h-97v-136zM351 156q68 0 98.5 12.5t30.5 48.5q0 35 -30.5 47t-98.5 12h-110v-120h110z" />
    <glyph glyph-name="c.001" horiz-adv-x="750" 
d="M714 174q-24 -39 -57 -71t-73 -55t-86 -35.5t-95 -12.5q-76 0 -142.5 29t-116 79t-78.5 116.5t-29 142.5t29 142.5t78.5 116.5t116 79t142.5 29q49 0 95 -12.5t86 -35.5t73 -55.5t57 -71.5l-112 -112q-12 30 -31.5 55t-45.5 43t-57 28t-65 10q-44 0 -83.5 -17
t-68.5 -46.5t-46 -68.5t-17 -84t17 -84t46 -68.5t68.5 -46.5t83.5 -17q34 0 65 10t57 28t45.5 42.5t31.5 54.5z" />
    <glyph glyph-name="d.001" horiz-adv-x="694" 
d="M458 691q33 -15 67.5 -39.5t62 -63t45.5 -93t18 -129.5q0 -92 -28 -154.5t-72.5 -103.5t-99.5 -63t-109.5 -32.5t-103 -12t-78.5 -1.5h-75v735h75q32 0 68.5 -0.5t75.5 -4.5t78 -13t76 -25zM236 152q71 5 121 19.5t82 40.5t46.5 64t14.5 90q0 61 -16 101t-49 64.5
t-82.5 35.5t-116.5 14v-429z" />
    <glyph glyph-name="e.001" horiz-adv-x="667" 
d="M593 581h-343v-163h330v-153h-330v-112h343v-153h-495v733h495v-152v0z" />
    <glyph glyph-name="f.001" horiz-adv-x="625" 
d="M576 581h-341v-165h328v-151h-328v-266h-151v733h492v-151v0z" />
    <glyph glyph-name="g.001" horiz-adv-x="750" 
d="M405 403h319v-215q-24 -42 -57.5 -76.5t-74.5 -59.5t-88.5 -38.5t-98.5 -13.5q-75 0 -141.5 29t-116 78.5t-78.5 116t-29 142.5t29 142.5t78.5 116t116 78.5t141.5 29q97 0 176.5 -45.5t129.5 -120.5l-110 -112q-26 57 -78 92t-118 35q-44 0 -83 -17t-68 -46t-46 -68
t-17 -84t17 -84t46 -68.5t68 -46.5t83 -17q24 0 49.5 7t50.5 20.5t46 32.5t36 43h-182v150z" />
    <glyph glyph-name="h.001" 
d="M506 732h154v-734h-154v269h-255v-269h-153v734h153v-312h255v312v0z" />
    <glyph glyph-name="i.001" horiz-adv-x="320" 
d="M84 732h152v-733h-152v733v0z" />
    <glyph glyph-name="j.001" horiz-adv-x="569" 
d="M99 0v153q125 0 184 60q19 19 29.5 39.5t15.5 38t6 29.5l1 12v400h152v-399q0 -5 -1.5 -28t-10.5 -55.5t-28.5 -70.5t-54.5 -73q-106 -106 -293 -106z" />
    <glyph glyph-name="k.001" horiz-adv-x="694" 
d="M522 292q43 -44 66 -94.5t33.5 -93.5t11.5 -72.5t1 -32.5l-75 2l-75 1l-1 19t-7.5 47t-20.5 60.5t-41 59.5q-62 62 -180 64v-251h-150v733h150v-332q10 1 43 6t70 24q99 51 99 176v126h150v-126q0 -100 -35.5 -166.5t-88.5 -107.5q28 -19 50 -42z" />
    <glyph glyph-name="l.001" horiz-adv-x="625" 
d="M568 -1h-498v734h153v-580h345v-154v0z" />
    <glyph glyph-name="m.001" horiz-adv-x="930" 
d="M256 302v-303h-156v735h162l198 -502l195 502h161v-735h-156v298l-123 -298h-154l-127 303v0z" />
    <glyph glyph-name="n.001" horiz-adv-x="834" 
d="M587 258v475h156v-734h-172l-316 476v-476h-156v735h172l316 -476v0z" />
    <glyph glyph-name="o.001" horiz-adv-x="812" 
d="M419 0q-76 0 -142.5 29t-116 79t-78.5 116.5t-29 142.5t29 142.5t78.5 116.5t116 79t142.5 29t142.5 -29t116 -79t78.5 -116.5t29 -142.5t-29 -142.5t-78.5 -116.5t-116 -79t-142.5 -29zM419 583q-45 0 -84 -17t-68 -46.5t-46 -68.5t-17 -84t17 -84t46 -68.5t68 -46.5
t84 -17q44 0 83 17t68.5 46.5t46.5 68.5t17 84t-17 84t-46.5 68.5t-68.5 46.5t-83 17z" />
    <glyph glyph-name="p.001" 
d="M251 -1h-151v735h356q36 0 78 -14t77.5 -45t59.5 -81t24 -122q0 -141 -81 -219q-26 -26 -54 -40t-52.5 -21t-42 -8t-23.5 -1h-191v-184zM251 334h194h-1q11 0 28 4t32.5 18.5t27 41.5t11.5 74q0 35 -9 56.5t-22.5 33t-29 16t-27.5 4.5h-204v-248z" />
    <glyph glyph-name="q.001" horiz-adv-x="931" 
d="M833 368q0 -59 -17.5 -112t-49.5 -98l53 -52l-106 -107l-56 56q-42 -25 -89.5 -39t-99.5 -14q-75 0 -141.5 29t-116 78.5t-78.5 116t-29 142.5t29 142.5t78.5 116t116 78.5t141.5 29t141.5 -29t116 -78.5t78.5 -116t29 -142.5zM468 153q40 0 77 14l-41 41l106 107l47 -48
q25 48 25 101q0 45 -17 84t-46 68.5t-68 46.5t-83 17t-83.5 -17t-68.5 -46.5t-46 -68.5t-17 -84t17 -84t46 -68t68.5 -46t83.5 -17z" />
    <glyph glyph-name="r.001" horiz-adv-x="749" 
d="M629 260q29 -26 50 -58.5t34.5 -67t19.5 -69.5t6 -66h-75h-76q0 7 -1.5 23.5t-6.5 36.5t-15 41t-27.5 39t-43.5 29t-63 11h-181v-180h-150v735h331q4 0 22 -1.5t43.5 -9t55.5 -22.5t58 -43q83 -83 83 -228q0 -57 -17.5 -99t-46.5 -71zM431 330q12 0 31 3.5t37 14t30.5 30
t12.5 52.5q0 52 -13.5 82.5t-32 46t-37.5 20t-29 4.5h-180v-253h181z" />
    <glyph glyph-name="s.001" horiz-adv-x="687" 
d="M333 -8q-56 0 -105 18t-86.5 48t-59 70.5t-21.5 85.5h152q0 -9 8.5 -21t24 -23t37.5 -18.5t50 -7.5q45 0 71 10.5t39 23t16.5 23l3.5 10.5q0 12 -1.5 24t-9.5 22q-14 17 -48 26.5t-84 9.5q-38 0 -68.5 7t-53.5 17.5t-40 23.5t-28 26q-22 24 -34 50.5t-17 50t-5.5 41
t-0.5 25.5q0 7 2 22.5t8.5 34.5t18 40.5t31.5 41.5q73 73 203 73q128 0 200 -75q25 -26 39 -54t20 -52t7 -41t1 -21l-152 5v-2q0 12 -4 27.5t-16 29t-35 22.5t-60 9q-36 0 -57.5 -7t-33 -17t-15.5 -21t-4 -18v-7l-1 -1q0 -10 2 -20q2 -8 5 -17.5t11 -17.5q23 -23 77 -23
q142 0 219 -61.5t77 -173.5q0 -32 -15.5 -70t-49 -71t-87.5 -55t-131 -22z" />
    <glyph glyph-name="t.001" horiz-adv-x="604" 
d="M560 733v-152h-170v-582h-153v582h-170v152h493v0z" />
    <glyph glyph-name="u.001" horiz-adv-x="778" 
d="M693 733v-400q0 -29 -6 -64.5t-19.5 -72.5t-36 -72.5t-55.5 -63t-77.5 -44t-102.5 -16.5h-1q-60 0 -111 20t-89 59q-36 36 -55.5 77.5t-28.5 79t-11 65t-2 33.5v399h153v-400q0 -8 1 -24t6 -36t14 -41t25.5 -39t40.5 -29t58 -11q51 0 79.5 24t43 55t18 61t3.5 41v399h153
z" />
    <glyph glyph-name="v.001" horiz-adv-x="778" 
d="M481 0h-180l-262 733h166l186 -522l186 522h166l-262 -733v0z" />
    <glyph glyph-name="w.001" horiz-adv-x="931" 
d="M373 -1h-155l-171 735h154l96 -414l100 414h155l85 -417l116 417h155l-205 -735h-155l-80 395l-95 -395v0z" />
    <glyph glyph-name="x.001" horiz-adv-x="847" 
d="M748 733l-229 -379l214 -353h-177l-125 207l-125 -207h-177l214 353l-229 379h176l141 -234l141 234h176v0z" />
    <glyph glyph-name="y.001" 
d="M677 732l-233 -499v-232h-153v230l-234 501h165l146 -355l146 355h163v0z" />
    <glyph glyph-name="z.001" horiz-adv-x="778" 
d="M643 -2h-541l326 586h-301v149h556l-326 -585h286v-150v0z" />
    <glyph glyph-name="a.002" horiz-adv-x="708" 
d="M542 -1l-38 108h-296l-38 -108h-166l262 734h180l262 -734h-166zM262 258h188l-94 263z" />
    <glyph glyph-name="b.002" horiz-adv-x="695" 
d="M552 391q38 -22 59 -53t30.5 -59.5t11.5 -49.5t2 -23q0 -53 -15.5 -88.5t-41 -58.5t-58.5 -35.5t-68 -18t-70 -6t-64 -0.5h-254v733h254q37 0 80.5 -12.5t80.5 -41t62 -74t25 -110.5q0 -20 -2.5 -33.5t-7 -25t-10.5 -21.5t-14 -23zM241 438h97q12 0 28 -0.5t29.5 3
t23 15.5t9.5 38q0 28 -11 44t-26 24t-30 10t-23 2h-97v-136zM351 156q68 0 98.5 12.5t30.5 48.5q0 35 -30.5 47t-98.5 12h-110v-120h110z" />
    <glyph glyph-name="c.002" horiz-adv-x="750" 
d="M714 174q-24 -39 -57 -71t-73 -55t-86 -35.5t-95 -12.5q-76 0 -142.5 29t-116 79t-78.5 116.5t-29 142.5t29 142.5t78.5 116.5t116 79t142.5 29q49 0 95 -12.5t86 -35.5t73 -55.5t57 -71.5l-112 -112q-12 30 -31.5 55t-45.5 43t-57 28t-65 10q-44 0 -83.5 -17
t-68.5 -46.5t-46 -68.5t-17 -84t17 -84t46 -68.5t68.5 -46.5t83.5 -17q34 0 65 10t57 28t45.5 42.5t31.5 54.5z" />
    <glyph glyph-name="d.002" horiz-adv-x="694" 
d="M458 691q33 -15 67.5 -39.5t62 -63t45.5 -93t18 -129.5q0 -92 -28 -154.5t-72.5 -103.5t-99.5 -63t-109.5 -32.5t-103 -12t-78.5 -1.5h-75v735h75q32 0 68.5 -0.5t75.5 -4.5t78 -13t76 -25zM236 152q71 5 121 19.5t82 40.5t46.5 64t14.5 90q0 61 -16 101t-49 64.5
t-82.5 35.5t-116.5 14v-429z" />
    <glyph glyph-name="e.002" horiz-adv-x="667" 
d="M593 581h-343v-163h330v-153h-330v-112h343v-153h-495v733h495v-152v0z" />
    <glyph glyph-name="f.002" horiz-adv-x="625" 
d="M576 581h-341v-165h328v-151h-328v-266h-151v733h492v-151v0z" />
    <glyph glyph-name="g.002" horiz-adv-x="750" 
d="M405 403h319v-215q-24 -42 -57.5 -76.5t-74.5 -59.5t-88.5 -38.5t-98.5 -13.5q-75 0 -141.5 29t-116 78.5t-78.5 116t-29 142.5t29 142.5t78.5 116t116 78.5t141.5 29q97 0 176.5 -45.5t129.5 -120.5l-110 -112q-26 57 -78 92t-118 35q-44 0 -83 -17t-68 -46t-46 -68
t-17 -84t17 -84t46 -68.5t68 -46.5t83 -17q24 0 49.5 7t50.5 20.5t46 32.5t36 43h-182v150z" />
    <glyph glyph-name="h.002" 
d="M506 732h154v-734h-154v269h-255v-269h-153v734h153v-312h255v312v0z" />
    <glyph glyph-name="i.002" horiz-adv-x="320" 
d="M84 732h152v-733h-152v733v0z" />
    <glyph glyph-name="j.002" horiz-adv-x="569" 
d="M99 0v153q125 0 184 60q19 19 29.5 39.5t15.5 38t6 29.5l1 12v400h152v-399q0 -5 -1.5 -28t-10.5 -55.5t-28.5 -70.5t-54.5 -73q-106 -106 -293 -106z" />
    <glyph glyph-name="k.002" horiz-adv-x="694" 
d="M522 292q43 -44 66 -94.5t33.5 -93.5t11.5 -72.5t1 -32.5l-75 2l-75 1l-1 19t-7.5 47t-20.5 60.5t-41 59.5q-62 62 -180 64v-251h-150v733h150v-332q10 1 43 6t70 24q99 51 99 176v126h150v-126q0 -100 -35.5 -166.5t-88.5 -107.5q28 -19 50 -42z" />
    <glyph glyph-name="l.002" horiz-adv-x="625" 
d="M568 -1h-498v734h153v-580h345v-154v0z" />
    <glyph glyph-name="m.002" horiz-adv-x="930" 
d="M256 302v-303h-156v735h162l198 -502l195 502h161v-735h-156v298l-123 -298h-154l-127 303v0z" />
    <glyph glyph-name="n.002" horiz-adv-x="834" 
d="M587 258v475h156v-734h-172l-316 476v-476h-156v735h172l316 -476v0z" />
    <glyph glyph-name="o.002" horiz-adv-x="812" 
d="M419 0q-76 0 -142.5 29t-116 79t-78.5 116.5t-29 142.5t29 142.5t78.5 116.5t116 79t142.5 29t142.5 -29t116 -79t78.5 -116.5t29 -142.5t-29 -142.5t-78.5 -116.5t-116 -79t-142.5 -29zM419 583q-45 0 -84 -17t-68 -46.5t-46 -68.5t-17 -84t17 -84t46 -68.5t68 -46.5
t84 -17q44 0 83 17t68.5 46.5t46.5 68.5t17 84t-17 84t-46.5 68.5t-68.5 46.5t-83 17z" />
    <glyph glyph-name="p.002" 
d="M251 -1h-151v735h356q36 0 78 -14t77.5 -45t59.5 -81t24 -122q0 -141 -81 -219q-26 -26 -54 -40t-52.5 -21t-42 -8t-23.5 -1h-191v-184zM251 334h194h-1q11 0 28 4t32.5 18.5t27 41.5t11.5 74q0 35 -9 56.5t-22.5 33t-29 16t-27.5 4.5h-204v-248z" />
    <glyph glyph-name="q.002" horiz-adv-x="931" 
d="M833 368q0 -59 -17.5 -112t-49.5 -98l53 -52l-106 -107l-56 56q-42 -25 -89.5 -39t-99.5 -14q-75 0 -141.5 29t-116 78.5t-78.5 116t-29 142.5t29 142.5t78.5 116t116 78.5t141.5 29t141.5 -29t116 -78.5t78.5 -116t29 -142.5zM468 153q40 0 77 14l-41 41l106 107l47 -48
q25 48 25 101q0 45 -17 84t-46 68.5t-68 46.5t-83 17t-83.5 -17t-68.5 -46.5t-46 -68.5t-17 -84t17 -84t46 -68t68.5 -46t83.5 -17z" />
    <glyph glyph-name="r.002" horiz-adv-x="749" 
d="M629 260q29 -26 50 -58.5t34.5 -67t19.5 -69.5t6 -66h-75h-76q0 7 -1.5 23.5t-6.5 36.5t-15 41t-27.5 39t-43.5 29t-63 11h-181v-180h-150v735h331q4 0 22 -1.5t43.5 -9t55.5 -22.5t58 -43q83 -83 83 -228q0 -57 -17.5 -99t-46.5 -71zM431 330q12 0 31 3.5t37 14t30.5 30
t12.5 52.5q0 52 -13.5 82.5t-32 46t-37.5 20t-29 4.5h-180v-253h181z" />
    <glyph glyph-name="s.002" horiz-adv-x="687" 
d="M333 -8q-56 0 -105 18t-86.5 48t-59 70.5t-21.5 85.5h152q0 -9 8.5 -21t24 -23t37.5 -18.5t50 -7.5q45 0 71 10.5t39 23t16.5 23l3.5 10.5q0 12 -1.5 24t-9.5 22q-14 17 -48 26.5t-84 9.5q-38 0 -68.5 7t-53.5 17.5t-40 23.5t-28 26q-22 24 -34 50.5t-17 50t-5.5 41
t-0.5 25.5q0 7 2 22.5t8.5 34.5t18 40.5t31.5 41.5q73 73 203 73q128 0 200 -75q25 -26 39 -54t20 -52t7 -41t1 -21l-152 5v-2q0 12 -4 27.5t-16 29t-35 22.5t-60 9q-36 0 -57.5 -7t-33 -17t-15.5 -21t-4 -18v-7l-1 -1q0 -10 2 -20q2 -8 5 -17.5t11 -17.5q23 -23 77 -23
q142 0 219 -61.5t77 -173.5q0 -32 -15.5 -70t-49 -71t-87.5 -55t-131 -22z" />
    <glyph glyph-name="t.002" horiz-adv-x="604" 
d="M560 733v-152h-170v-582h-153v582h-170v152h493v0z" />
    <glyph glyph-name="u.002" horiz-adv-x="778" 
d="M693 733v-400q0 -29 -6 -64.5t-19.5 -72.5t-36 -72.5t-55.5 -63t-77.5 -44t-102.5 -16.5h-1q-60 0 -111 20t-89 59q-36 36 -55.5 77.5t-28.5 79t-11 65t-2 33.5v399h153v-400q0 -8 1 -24t6 -36t14 -41t25.5 -39t40.5 -29t58 -11q51 0 79.5 24t43 55t18 61t3.5 41v399h153
z" />
    <glyph glyph-name="v.002" horiz-adv-x="778" 
d="M481 0h-180l-262 733h166l186 -522l186 522h166l-262 -733v0z" />
    <glyph glyph-name="w.002" horiz-adv-x="931" 
d="M373 -1h-155l-171 735h154l96 -414l100 414h155l85 -417l116 417h155l-205 -735h-155l-80 395l-95 -395v0z" />
    <glyph glyph-name="x.002" horiz-adv-x="847" 
d="M748 733l-229 -379l214 -353h-177l-125 207l-125 -207h-177l214 353l-229 379h176l141 -234l141 234h176v0z" />
    <glyph glyph-name="y.002" 
d="M677 732l-233 -499v-232h-153v230l-234 501h165l146 -355l146 355h163v0z" />
    <glyph glyph-name="z.002" horiz-adv-x="778" 
d="M643 -2h-541l326 586h-301v149h556l-326 -585h286v-150v0z" />
    <glyph glyph-name="a.003" horiz-adv-x="708" 
d="M542 -1l-38 108h-296l-38 -108h-166l262 734h180l262 -734h-166zM262 258h188l-94 263z" />
    <glyph glyph-name="b.003" horiz-adv-x="695" 
d="M552 391q38 -22 59 -53t30.5 -59.5t11.5 -49.5t2 -23q0 -53 -15.5 -88.5t-41 -58.5t-58.5 -35.5t-68 -18t-70 -6t-64 -0.5h-254v733h254q37 0 80.5 -12.5t80.5 -41t62 -74t25 -110.5q0 -20 -2.5 -33.5t-7 -25t-10.5 -21.5t-14 -23zM241 438h97q12 0 28 -0.5t29.5 3
t23 15.5t9.5 38q0 28 -11 44t-26 24t-30 10t-23 2h-97v-136zM351 156q68 0 98.5 12.5t30.5 48.5q0 35 -30.5 47t-98.5 12h-110v-120h110z" />
    <glyph glyph-name="c.003" horiz-adv-x="750" 
d="M714 174q-24 -39 -57 -71t-73 -55t-86 -35.5t-95 -12.5q-76 0 -142.5 29t-116 79t-78.5 116.5t-29 142.5t29 142.5t78.5 116.5t116 79t142.5 29q49 0 95 -12.5t86 -35.5t73 -55.5t57 -71.5l-112 -112q-12 30 -31.5 55t-45.5 43t-57 28t-65 10q-44 0 -83.5 -17
t-68.5 -46.5t-46 -68.5t-17 -84t17 -84t46 -68.5t68.5 -46.5t83.5 -17q34 0 65 10t57 28t45.5 42.5t31.5 54.5z" />
    <glyph glyph-name="d.003" horiz-adv-x="694" 
d="M458 691q33 -15 67.5 -39.5t62 -63t45.5 -93t18 -129.5q0 -92 -28 -154.5t-72.5 -103.5t-99.5 -63t-109.5 -32.5t-103 -12t-78.5 -1.5h-75v735h75q32 0 68.5 -0.5t75.5 -4.5t78 -13t76 -25zM236 152q71 5 121 19.5t82 40.5t46.5 64t14.5 90q0 61 -16 101t-49 64.5
t-82.5 35.5t-116.5 14v-429z" />
    <glyph glyph-name="e.003" horiz-adv-x="667" 
d="M593 581h-343v-163h330v-153h-330v-112h343v-153h-495v733h495v-152v0z" />
    <glyph glyph-name="f.003" horiz-adv-x="625" 
d="M576 581h-341v-165h328v-151h-328v-266h-151v733h492v-151v0z" />
    <glyph glyph-name="g.003" horiz-adv-x="750" 
d="M405 403h319v-215q-24 -42 -57.5 -76.5t-74.5 -59.5t-88.5 -38.5t-98.5 -13.5q-75 0 -141.5 29t-116 78.5t-78.5 116t-29 142.5t29 142.5t78.5 116t116 78.5t141.5 29q97 0 176.5 -45.5t129.5 -120.5l-110 -112q-26 57 -78 92t-118 35q-44 0 -83 -17t-68 -46t-46 -68
t-17 -84t17 -84t46 -68.5t68 -46.5t83 -17q24 0 49.5 7t50.5 20.5t46 32.5t36 43h-182v150z" />
    <glyph glyph-name="h.003" 
d="M506 732h154v-734h-154v269h-255v-269h-153v734h153v-312h255v312v0z" />
    <glyph glyph-name="i.003" horiz-adv-x="320" 
d="M84 732h152v-733h-152v733v0z" />
    <glyph glyph-name="j.003" horiz-adv-x="569" 
d="M99 0v153q125 0 184 60q19 19 29.5 39.5t15.5 38t6 29.5l1 12v400h152v-399q0 -5 -1.5 -28t-10.5 -55.5t-28.5 -70.5t-54.5 -73q-106 -106 -293 -106z" />
    <glyph glyph-name="k.003" horiz-adv-x="694" 
d="M523 292q43 -44 66.5 -94.5t33.5 -93.5t11.5 -72.5t1.5 -32.5l-75 2l-75 1l-1 19t-8 47t-21 60.5t-41 59.5q-62 62 -180 64v-251h-151v735h151v-333q9 0 30 2t47.5 9t55 20.5t52 36.5t38.5 56.5t15 81.5v127h151v-127q0 -52 -11 -94.5t-30.5 -77t-45 -61.5t-55.5 -48
q11 -8 21.5 -16.5t19.5 -19.5z" />
    <glyph glyph-name="l.003" horiz-adv-x="625" 
d="M568 -1h-498v734h153v-580h345v-154v0z" />
    <glyph glyph-name="m.003" horiz-adv-x="930" 
d="M256 302v-303h-156v735h162l198 -502l195 502h161v-735h-156v298l-123 -298h-154l-127 303v0z" />
    <glyph glyph-name="n.003" horiz-adv-x="834" 
d="M587 258v475h156v-734h-172l-316 476v-476h-156v735h172l316 -476v0z" />
    <glyph glyph-name="o.003" horiz-adv-x="812" 
d="M419 0q-76 0 -142.5 29t-116 79t-78.5 116.5t-29 142.5t29 142.5t78.5 116.5t116 79t142.5 29t142.5 -29t116 -79t78.5 -116.5t29 -142.5t-29 -142.5t-78.5 -116.5t-116 -79t-142.5 -29zM419 583q-45 0 -84 -17t-68 -46.5t-46 -68.5t-17 -84t17 -84t46 -68.5t68 -46.5
t84 -17q44 0 83 17t68.5 46.5t46.5 68.5t17 84t-17 84t-46.5 68.5t-68.5 46.5t-83 17z" />
    <glyph glyph-name="p.003" 
d="M251 -1h-151v735h356q36 0 78 -14t77.5 -45t59.5 -81t24 -122q0 -141 -81 -219q-26 -26 -54 -40t-52.5 -21t-42 -8t-23.5 -1h-191v-184zM251 334h194h-1q11 0 28 4t32.5 18.5t27 41.5t11.5 74q0 35 -9 56.5t-22.5 33t-29 16t-27.5 4.5h-204v-248z" />
    <glyph glyph-name="q.003" horiz-adv-x="931" 
d="M833 368q0 -59 -17.5 -112t-49.5 -98l53 -52l-106 -107l-56 56q-42 -25 -89.5 -39t-99.5 -14q-75 0 -141.5 29t-116 78.5t-78.5 116t-29 142.5t29 142.5t78.5 116t116 78.5t141.5 29t141.5 -29t116 -78.5t78.5 -116t29 -142.5zM468 153q40 0 77 14l-41 41l106 107l47 -48
q25 48 25 101q0 45 -17 84t-46 68.5t-68 46.5t-83 17t-83.5 -17t-68.5 -46.5t-46 -68.5t-17 -84t17 -84t46 -68t68.5 -46t83.5 -17z" />
    <glyph glyph-name="r.003" horiz-adv-x="749" 
d="M629 260q29 -26 50 -58.5t34.5 -67t19.5 -69.5t6 -66h-75h-76q0 7 -1.5 23.5t-6.5 36.5t-15 41t-27.5 39t-43.5 29t-63 11h-181v-180h-150v735h331q4 0 22 -1.5t43.5 -9t55.5 -22.5t58 -43q83 -83 83 -228q0 -57 -17.5 -99t-46.5 -71zM431 330q12 0 31 3.5t37 14t30.5 30
t12.5 52.5q0 52 -13.5 82.5t-32 46t-37.5 20t-29 4.5h-180v-253h181z" />
    <glyph glyph-name="s.003" horiz-adv-x="687" 
d="M333 -8q-56 0 -105 18t-86.5 48t-59 70.5t-21.5 85.5h152q0 -9 8.5 -21t24 -23t37.5 -18.5t50 -7.5q45 0 71 10.5t39 23t16.5 23l3.5 10.5q0 12 -1.5 24t-9.5 22q-14 17 -48 26.5t-84 9.5q-38 0 -68.5 7t-53.5 17.5t-40 23.5t-28 26q-22 24 -34 50.5t-17 50t-5.5 41
t-0.5 25.5q0 7 2 22.5t8.5 34.5t18 40.5t31.5 41.5q73 73 203 73q128 0 200 -75q25 -26 39 -54t20 -52t7 -41t1 -21l-152 5v-2q0 12 -4 27.5t-16 29t-35 22.5t-60 9q-36 0 -57.5 -7t-33 -17t-15.5 -21t-4 -18v-7l-1 -1q0 -10 2 -20q2 -8 5 -17.5t11 -17.5q23 -23 77 -23
q142 0 219 -61.5t77 -173.5q0 -32 -15.5 -70t-49 -71t-87.5 -55t-131 -22z" />
    <glyph glyph-name="t.003" horiz-adv-x="604" 
d="M560 733v-152h-170v-582h-153v582h-170v152h493v0z" />
    <glyph glyph-name="u.003" horiz-adv-x="778" 
d="M693 733v-400q0 -29 -6 -64.5t-19.5 -72.5t-36 -72.5t-55.5 -63t-77.5 -44t-102.5 -16.5h-1q-60 0 -111 20t-89 59q-36 36 -55.5 77.5t-28.5 79t-11 65t-2 33.5v399h153v-400q0 -8 1 -24t6 -36t14 -41t25.5 -39t40.5 -29t58 -11q51 0 79.5 24t43 55t18 61t3.5 41v399h153
z" />
    <glyph glyph-name="v.003" horiz-adv-x="778" 
d="M481 0h-180l-262 733h166l186 -522l186 522h166l-262 -733v0z" />
    <glyph glyph-name="w.003" horiz-adv-x="931" 
d="M373 -1h-155l-171 735h154l96 -414l100 414h155l85 -417l116 417h155l-205 -735h-155l-80 395l-95 -395v0z" />
    <glyph glyph-name="x.003" horiz-adv-x="847" 
d="M748 733l-229 -379l214 -353h-177l-125 207l-125 -207h-177l214 353l-229 379h176l141 -234l141 234h176v0z" />
    <glyph glyph-name="y.003" 
d="M677 732l-233 -499v-232h-153v230l-234 501h165l146 -355l146 355h163v0z" />
    <glyph glyph-name="z.003" horiz-adv-x="778" 
d="M643 -2h-541l326 586h-301v149h556l-326 -585h286v-150v0z" />
    <glyph glyph-name="a.004" horiz-adv-x="708" 
d="M542 -1l-38 108h-296l-38 -108h-166l262 734h180l262 -734h-166zM262 258h188l-94 263z" />
    <glyph glyph-name="b.004" horiz-adv-x="695" 
d="M552 391q38 -22 59 -53t30.5 -59.5t11.5 -49.5t2 -23q0 -53 -15.5 -88.5t-41 -58.5t-58.5 -35.5t-68 -18t-70 -6t-64 -0.5h-254v733h254q37 0 80.5 -12.5t80.5 -41t62 -74t25 -110.5q0 -20 -2.5 -33.5t-7 -25t-10.5 -21.5t-14 -23zM241 438h97q12 0 28 -0.5t29.5 3
t23 15.5t9.5 38q0 28 -11 44t-26 24t-30 10t-23 2h-97v-136zM351 156q68 0 98.5 12.5t30.5 48.5q0 35 -30.5 47t-98.5 12h-110v-120h110z" />
    <glyph glyph-name="c.004" horiz-adv-x="750" 
d="M714 174q-24 -39 -57 -71t-73 -55t-86 -35.5t-95 -12.5q-76 0 -142.5 29t-116 79t-78.5 116.5t-29 142.5t29 142.5t78.5 116.5t116 79t142.5 29q49 0 95 -12.5t86 -35.5t73 -55.5t57 -71.5l-112 -112q-12 30 -31.5 55t-45.5 43t-57 28t-65 10q-44 0 -83.5 -17
t-68.5 -46.5t-46 -68.5t-17 -84t17 -84t46 -68.5t68.5 -46.5t83.5 -17q34 0 65 10t57 28t45.5 42.5t31.5 54.5z" />
    <glyph glyph-name="d.004" horiz-adv-x="694" 
d="M458 691q33 -15 67.5 -39.5t62 -63t45.5 -93t18 -129.5q0 -92 -28 -154.5t-72.5 -103.5t-99.5 -63t-109.5 -32.5t-103 -12t-78.5 -1.5h-75v735h75q32 0 68.5 -0.5t75.5 -4.5t78 -13t76 -25zM236 152q71 5 121 19.5t82 40.5t46.5 64t14.5 90q0 61 -16 101t-49 64.5
t-82.5 35.5t-116.5 14v-429z" />
    <glyph glyph-name="e.004" horiz-adv-x="667" 
d="M593 581h-343v-163h330v-153h-330v-112h343v-153h-495v733h495v-152v0z" />
    <glyph glyph-name="f.004" horiz-adv-x="625" 
d="M576 581h-341v-165h328v-151h-328v-266h-151v733h492v-151v0z" />
    <glyph glyph-name="g.004" horiz-adv-x="750" 
d="M405 403h319v-215q-24 -42 -57.5 -76.5t-74.5 -59.5t-88.5 -38.5t-98.5 -13.5q-75 0 -141.5 29t-116 78.5t-78.5 116t-29 142.5t29 142.5t78.5 116t116 78.5t141.5 29q97 0 176.5 -45.5t129.5 -120.5l-110 -112q-26 57 -78 92t-118 35q-44 0 -83 -17t-68 -46t-46 -68
t-17 -84t17 -84t46 -68.5t68 -46.5t83 -17q24 0 49.5 7t50.5 20.5t46 32.5t36 43h-182v150z" />
    <glyph glyph-name="h.004" 
d="M506 732h154v-734h-154v269h-255v-269h-153v734h153v-312h255v312v0z" />
    <glyph glyph-name="i.004" horiz-adv-x="320" 
d="M84 732h152v-733h-152v733v0z" />
    <glyph glyph-name="j.004" horiz-adv-x="569" 
d="M99 0v153q125 0 184 60q19 19 29.5 39.5t15.5 38t6 29.5l1 12v400h152v-399q0 -5 -1.5 -28t-10.5 -55.5t-28.5 -70.5t-54.5 -73q-106 -106 -293 -106z" />
    <glyph glyph-name="k.004" horiz-adv-x="764" 
d="M661 734q0 -56 -7.5 -103.5t-20 -87t-28.5 -71t-32 -55.5q-39 -57 -87 -92q47 0 83 -14t62.5 -37t44.5 -52.5t30 -59.5q27 -72 32 -163h-151q0 33 -7 58.5t-18 44.5t-25 32t-29 22q-34 20 -78 23h-181v-180h-150v735h150v-334q47 0 83.5 14.5t63.5 37.5t46.5 53t32.5 62
q30 73 38 167h148z" />
    <glyph glyph-name="l.004" horiz-adv-x="625" 
d="M568 -1h-498v734h153v-580h345v-154v0z" />
    <glyph glyph-name="m.004" horiz-adv-x="930" 
d="M256 302v-303h-156v735h162l198 -502l195 502h161v-735h-156v298l-123 -298h-154l-127 303v0z" />
    <glyph glyph-name="n.004" horiz-adv-x="834" 
d="M587 258v475h156v-734h-172l-316 476v-476h-156v735h172l316 -476v0z" />
    <glyph glyph-name="o.004" horiz-adv-x="812" 
d="M419 0q-76 0 -142.5 29t-116 79t-78.5 116.5t-29 142.5t29 142.5t78.5 116.5t116 79t142.5 29t142.5 -29t116 -79t78.5 -116.5t29 -142.5t-29 -142.5t-78.5 -116.5t-116 -79t-142.5 -29zM419 583q-45 0 -84 -17t-68 -46.5t-46 -68.5t-17 -84t17 -84t46 -68.5t68 -46.5
t84 -17q44 0 83 17t68.5 46.5t46.5 68.5t17 84t-17 84t-46.5 68.5t-68.5 46.5t-83 17z" />
    <glyph glyph-name="p.004" 
d="M251 -1h-151v735h356q36 0 78 -14t77.5 -45t59.5 -81t24 -122q0 -141 -81 -219q-26 -26 -54 -40t-52.5 -21t-42 -8t-23.5 -1h-191v-184zM251 334h194h-1q11 0 28 4t32.5 18.5t27 41.5t11.5 74q0 35 -9 56.5t-22.5 33t-29 16t-27.5 4.5h-204v-248z" />
    <glyph glyph-name="q.004" horiz-adv-x="931" 
d="M833 368q0 -59 -17.5 -112t-49.5 -98l53 -52l-106 -107l-56 56q-42 -25 -89.5 -39t-99.5 -14q-75 0 -141.5 29t-116 78.5t-78.5 116t-29 142.5t29 142.5t78.5 116t116 78.5t141.5 29t141.5 -29t116 -78.5t78.5 -116t29 -142.5zM468 153q40 0 77 14l-41 41l106 107l47 -48
q25 48 25 101q0 45 -17 84t-46 68.5t-68 46.5t-83 17t-83.5 -17t-68.5 -46.5t-46 -68.5t-17 -84t17 -84t46 -68t68.5 -46t83.5 -17z" />
    <glyph glyph-name="r.004" horiz-adv-x="749" 
d="M629 260q29 -26 50 -58.5t34.5 -67t19.5 -69.5t6 -66h-75h-76q0 7 -1.5 23.5t-6.5 36.5t-15 41t-27.5 39t-43.5 29t-63 11h-181v-180h-150v735h331q4 0 22 -1.5t43.5 -9t55.5 -22.5t58 -43q83 -83 83 -228q0 -57 -17.5 -99t-46.5 -71zM431 330q12 0 31 3.5t37 14t30.5 30
t12.5 52.5q0 52 -13.5 82.5t-32 46t-37.5 20t-29 4.5h-180v-253h181z" />
    <glyph glyph-name="s.004" horiz-adv-x="687" 
d="M333 -8q-56 0 -105 18t-86.5 48t-59 70.5t-21.5 85.5h152q0 -9 8.5 -21t24 -23t37.5 -18.5t50 -7.5q45 0 71 10.5t39 23t16.5 23l3.5 10.5q0 12 -1.5 24t-9.5 22q-14 17 -48 26.5t-84 9.5q-38 0 -68.5 7t-53.5 17.5t-40 23.5t-28 26q-22 24 -34 50.5t-17 50t-5.5 41
t-0.5 25.5q0 7 2 22.5t8.5 34.5t18 40.5t31.5 41.5q73 73 203 73q128 0 200 -75q25 -26 39 -54t20 -52t7 -41t1 -21l-152 5v-2q0 12 -4 27.5t-16 29t-35 22.5t-60 9q-36 0 -57.5 -7t-33 -17t-15.5 -21t-4 -18v-7l-1 -1q0 -10 2 -20q2 -8 5 -17.5t11 -17.5q23 -23 77 -23
q142 0 219 -61.5t77 -173.5q0 -32 -15.5 -70t-49 -71t-87.5 -55t-131 -22z" />
    <glyph glyph-name="t.004" horiz-adv-x="604" 
d="M560 733v-152h-170v-582h-153v582h-170v152h493v0z" />
    <glyph glyph-name="u.004" horiz-adv-x="778" 
d="M693 733v-400q0 -29 -6 -64.5t-19.5 -72.5t-36 -72.5t-55.5 -63t-77.5 -44t-102.5 -16.5h-1q-60 0 -111 20t-89 59q-36 36 -55.5 77.5t-28.5 79t-11 65t-2 33.5v399h153v-400q0 -8 1 -24t6 -36t14 -41t25.5 -39t40.5 -29t58 -11q51 0 79.5 24t43 55t18 61t3.5 41v399h153
z" />
    <glyph glyph-name="v.004" horiz-adv-x="778" 
d="M481 0h-180l-262 733h166l186 -522l186 522h166l-262 -733v0z" />
    <glyph glyph-name="w.004" horiz-adv-x="931" 
d="M373 -1h-155l-171 735h154l96 -414l100 414h155l85 -417l116 417h155l-205 -735h-155l-80 395l-95 -395v0z" />
    <glyph glyph-name="x.004" horiz-adv-x="847" 
d="M748 733l-229 -379l214 -353h-177l-125 207l-125 -207h-177l214 353l-229 379h176l141 -234l141 234h176v0z" />
    <glyph glyph-name="y.004" 
d="M677 732l-233 -499v-232h-153v230l-234 501h165l146 -355l146 355h163v0z" />
    <glyph glyph-name="z.004" horiz-adv-x="778" 
d="M643 -2h-541l326 586h-301v149h556l-326 -585h286v-150v0z" />
    <glyph glyph-name="a.005" horiz-adv-x="708" 
d="M542 -1l-38 108h-296l-38 -108h-166l262 734h180l262 -734h-166zM262 258h188l-94 263z" />
    <glyph glyph-name="b.005" horiz-adv-x="695" 
d="M552 391q38 -22 59 -53t30.5 -59.5t11.5 -49.5t2 -23q0 -53 -15.5 -88.5t-41 -58.5t-58.5 -35.5t-68 -18t-70 -6t-64 -0.5h-254v733h254q37 0 80.5 -12.5t80.5 -41t62 -74t25 -110.5q0 -20 -2.5 -33.5t-7 -25t-10.5 -21.5t-14 -23zM241 438h97q12 0 28 -0.5t29.5 3
t23 15.5t9.5 38q0 28 -11 44t-26 24t-30 10t-23 2h-97v-136zM351 156q68 0 98.5 12.5t30.5 48.5q0 35 -30.5 47t-98.5 12h-110v-120h110z" />
    <glyph glyph-name="c.005" horiz-adv-x="750" 
d="M714 174q-24 -39 -57 -71t-73 -55t-86 -35.5t-95 -12.5q-76 0 -142.5 29t-116 79t-78.5 116.5t-29 142.5t29 142.5t78.5 116.5t116 79t142.5 29q49 0 95 -12.5t86 -35.5t73 -55.5t57 -71.5l-112 -112q-12 30 -31.5 55t-45.5 43t-57 28t-65 10q-44 0 -83.5 -17
t-68.5 -46.5t-46 -68.5t-17 -84t17 -84t46 -68.5t68.5 -46.5t83.5 -17q34 0 65 10t57 28t45.5 42.5t31.5 54.5z" />
    <glyph glyph-name="d.005" horiz-adv-x="694" 
d="M458 691q33 -15 67.5 -39.5t62 -63t45.5 -93t18 -129.5q0 -92 -28 -154.5t-72.5 -103.5t-99.5 -63t-109.5 -32.5t-103 -12t-78.5 -1.5h-75v735h75q32 0 68.5 -0.5t75.5 -4.5t78 -13t76 -25zM236 152q71 5 121 19.5t82 40.5t46.5 64t14.5 90q0 61 -16 101t-49 64.5
t-82.5 35.5t-116.5 14v-429z" />
    <glyph glyph-name="e.005" horiz-adv-x="667" 
d="M593 581h-343v-163h330v-153h-330v-112h343v-153h-495v733h495v-152v0z" />
    <glyph glyph-name="f.005" horiz-adv-x="625" 
d="M576 581h-341v-165h328v-151h-328v-266h-151v733h492v-151v0z" />
    <glyph glyph-name="g.005" horiz-adv-x="750" 
d="M405 403h319v-215q-24 -42 -57.5 -76.5t-74.5 -59.5t-88.5 -38.5t-98.5 -13.5q-75 0 -141.5 29t-116 78.5t-78.5 116t-29 142.5t29 142.5t78.5 116t116 78.5t141.5 29q97 0 176.5 -45.5t129.5 -120.5l-110 -112q-26 57 -78 92t-118 35q-44 0 -83 -17t-68 -46t-46 -68
t-17 -84t17 -84t46 -68.5t68 -46.5t83 -17q24 0 49.5 7t50.5 20.5t46 32.5t36 43h-182v150z" />
    <glyph glyph-name="h.005" 
d="M506 732h154v-734h-154v269h-255v-269h-153v734h153v-312h255v312v0z" />
    <glyph glyph-name="i.005" horiz-adv-x="320" 
d="M84 732h152v-733h-152v733v0z" />
    <glyph glyph-name="j.005" horiz-adv-x="569" 
d="M99 0v153q125 0 184 60q19 19 29.5 39.5t15.5 38t6 29.5l1 12v400h152v-399q0 -5 -1.5 -28t-10.5 -55.5t-28.5 -70.5t-54.5 -73q-106 -106 -293 -106z" />
    <glyph glyph-name="k.005" horiz-adv-x="764" 
d="M661 734q0 -56 -7.5 -103.5t-20 -87t-28.5 -71t-32 -55.5q-39 -57 -87 -92q47 0 83 -14t62.5 -37t44.5 -52.5t30 -59.5q27 -72 32 -163h-151q0 33 -7 58.5t-18 44.5t-25 32t-29 22q-34 20 -78 23h-181v-180h-150v735h150v-334q47 0 83.5 14.5t63.5 37.5t46.5 53t32.5 62
q30 73 38 167h148z" />
    <glyph glyph-name="l.005" horiz-adv-x="625" 
d="M568 -1h-498v734h153v-580h345v-154v0z" />
    <glyph glyph-name="m.005" horiz-adv-x="930" 
d="M256 302v-303h-156v735h162l198 -502l195 502h161v-735h-156v298l-123 -298h-154l-127 303v0z" />
    <glyph glyph-name="n.005" horiz-adv-x="834" 
d="M587 258v475h156v-734h-172l-316 476v-476h-156v735h172l316 -476v0z" />
    <glyph glyph-name="o.005" horiz-adv-x="812" 
d="M419 0q-76 0 -142.5 29t-116 79t-78.5 116.5t-29 142.5t29 142.5t78.5 116.5t116 79t142.5 29t142.5 -29t116 -79t78.5 -116.5t29 -142.5t-29 -142.5t-78.5 -116.5t-116 -79t-142.5 -29zM419 583q-45 0 -84 -17t-68 -46.5t-46 -68.5t-17 -84t17 -84t46 -68.5t68 -46.5
t84 -17q44 0 83 17t68.5 46.5t46.5 68.5t17 84t-17 84t-46.5 68.5t-68.5 46.5t-83 17z" />
    <glyph glyph-name="p.005" 
d="M251 -1h-151v735h356q36 0 78 -14t77.5 -45t59.5 -81t24 -122q0 -141 -81 -219q-26 -26 -54 -40t-52.5 -21t-42 -8t-23.5 -1h-191v-184zM251 334h194h-1q11 0 28 4t32.5 18.5t27 41.5t11.5 74q0 35 -9 56.5t-22.5 33t-29 16t-27.5 4.5h-204v-248z" />
    <glyph glyph-name="q.005" horiz-adv-x="931" 
d="M833 368q0 -59 -17.5 -112t-49.5 -98l53 -52l-106 -107l-56 56q-42 -25 -89.5 -39t-99.5 -14q-75 0 -141.5 29t-116 78.5t-78.5 116t-29 142.5t29 142.5t78.5 116t116 78.5t141.5 29t141.5 -29t116 -78.5t78.5 -116t29 -142.5zM468 153q40 0 77 14l-41 41l106 107l47 -48
q25 48 25 101q0 45 -17 84t-46 68.5t-68 46.5t-83 17t-83.5 -17t-68.5 -46.5t-46 -68.5t-17 -84t17 -84t46 -68t68.5 -46t83.5 -17z" />
    <glyph glyph-name="r.005" horiz-adv-x="749" 
d="M629 260q29 -26 50 -58.5t34.5 -67t19.5 -69.5t6 -66h-75h-76q0 7 -1.5 23.5t-6.5 36.5t-15 41t-27.5 39t-43.5 29t-63 11h-181v-180h-150v735h331q4 0 22 -1.5t43.5 -9t55.5 -22.5t58 -43q83 -83 83 -228q0 -57 -17.5 -99t-46.5 -71zM431 330q12 0 31 3.5t37 14t30.5 30
t12.5 52.5q0 52 -13.5 82.5t-32 46t-37.5 20t-29 4.5h-180v-253h181z" />
    <glyph glyph-name="s.005" horiz-adv-x="687" 
d="M333 -8q-56 0 -105 18t-86.5 48t-59 70.5t-21.5 85.5h152q0 -9 8.5 -21t24 -23t37.5 -18.5t50 -7.5q45 0 71 10.5t39 23t16.5 23l3.5 10.5q0 12 -1.5 24t-9.5 22q-14 17 -48 26.5t-84 9.5q-38 0 -68.5 7t-53.5 17.5t-40 23.5t-28 26q-22 24 -34 50.5t-17 50t-5.5 41
t-0.5 25.5q0 7 2 22.5t8.5 34.5t18 40.5t31.5 41.5q73 73 203 73q128 0 200 -75q25 -26 39 -54t20 -52t7 -41t1 -21l-152 5v-2q0 12 -4 27.5t-16 29t-35 22.5t-60 9q-36 0 -57.5 -7t-33 -17t-15.5 -21t-4 -18v-7l-1 -1q0 -10 2 -20q2 -8 5 -17.5t11 -17.5q23 -23 77 -23
q142 0 219 -61.5t77 -173.5q0 -32 -15.5 -70t-49 -71t-87.5 -55t-131 -22z" />
    <glyph glyph-name="t.005" horiz-adv-x="604" 
d="M560 733v-152h-170v-582h-153v582h-170v152h493v0z" />
    <glyph glyph-name="u.005" horiz-adv-x="778" 
d="M693 733v-400q0 -29 -6 -64.5t-19.5 -72.5t-36 -72.5t-55.5 -63t-77.5 -44t-102.5 -16.5h-1q-60 0 -111 20t-89 59q-36 36 -55.5 77.5t-28.5 79t-11 65t-2 33.5v399h153v-400q0 -8 1 -24t6 -36t14 -41t25.5 -39t40.5 -29t58 -11q51 0 79.5 24t43 55t18 61t3.5 41v399h153
z" />
    <glyph glyph-name="v.005" horiz-adv-x="778" 
d="M481 0h-180l-262 733h166l186 -522l186 522h166l-262 -733v0z" />
    <glyph glyph-name="w.005" horiz-adv-x="931" 
d="M373 -1h-155l-171 735h154l96 -414l100 414h155l85 -417l116 417h155l-205 -735h-155l-80 395l-95 -395v0z" />
    <glyph glyph-name="x.005" horiz-adv-x="847" 
d="M748 733l-229 -379l214 -353h-177l-125 207l-125 -207h-177l214 353l-229 379h176l141 -234l141 234h176v0z" />
    <glyph glyph-name="y.005" 
d="M677 732l-233 -499v-232h-153v230l-234 501h165l146 -355l146 355h163v0z" />
    <glyph glyph-name="z.005" horiz-adv-x="778" 
d="M643 -2h-541l326 586h-301v149h556l-326 -585h286v-150v0z" />
    <glyph glyph-name="a.006" horiz-adv-x="708" 
d="M542 -1l-38 108h-296l-38 -108h-166l262 734h180l262 -734h-166zM262 258h188l-94 263z" />
    <glyph glyph-name="b.006" horiz-adv-x="695" 
d="M552 391q38 -22 59 -53t30.5 -59.5t11.5 -49.5t2 -23q0 -53 -15.5 -88.5t-41 -58.5t-58.5 -35.5t-68 -18t-70 -6t-64 -0.5h-254v733h254q37 0 80.5 -12.5t80.5 -41t62 -74t25 -110.5q0 -20 -2.5 -33.5t-7 -25t-10.5 -21.5t-14 -23zM241 438h97q12 0 28 -0.5t29.5 3
t23 15.5t9.5 38q0 28 -11 44t-26 24t-30 10t-23 2h-97v-136zM351 156q68 0 98.5 12.5t30.5 48.5q0 35 -30.5 47t-98.5 12h-110v-120h110z" />
    <glyph glyph-name="c.006" horiz-adv-x="750" 
d="M714 174q-24 -39 -57 -71t-73 -55t-86 -35.5t-95 -12.5q-76 0 -142.5 29t-116 79t-78.5 116.5t-29 142.5t29 142.5t78.5 116.5t116 79t142.5 29q49 0 95 -12.5t86 -35.5t73 -55.5t57 -71.5l-112 -112q-12 30 -31.5 55t-45.5 43t-57 28t-65 10q-44 0 -83.5 -17
t-68.5 -46.5t-46 -68.5t-17 -84t17 -84t46 -68.5t68.5 -46.5t83.5 -17q34 0 65 10t57 28t45.5 42.5t31.5 54.5z" />
    <glyph glyph-name="d.006" horiz-adv-x="694" 
d="M458 691q33 -15 67.5 -39.5t62 -63t45.5 -93t18 -129.5q0 -92 -28 -154.5t-72.5 -103.5t-99.5 -63t-109.5 -32.5t-103 -12t-78.5 -1.5h-75v735h75q32 0 68.5 -0.5t75.5 -4.5t78 -13t76 -25zM236 152q71 5 121 19.5t82 40.5t46.5 64t14.5 90q0 61 -16 101t-49 64.5
t-82.5 35.5t-116.5 14v-429z" />
    <glyph glyph-name="e.006" horiz-adv-x="667" 
d="M593 581h-343v-163h330v-153h-330v-112h343v-153h-495v733h495v-152v0z" />
    <glyph glyph-name="f.006" horiz-adv-x="625" 
d="M576 581h-341v-165h328v-151h-328v-266h-151v733h492v-151v0z" />
    <glyph glyph-name="g.006" horiz-adv-x="750" 
d="M405 403h319v-215q-24 -42 -57.5 -76.5t-74.5 -59.5t-88.5 -38.5t-98.5 -13.5q-75 0 -141.5 29t-116 78.5t-78.5 116t-29 142.5t29 142.5t78.5 116t116 78.5t141.5 29q97 0 176.5 -45.5t129.5 -120.5l-110 -112q-26 57 -78 92t-118 35q-44 0 -83 -17t-68 -46t-46 -68
t-17 -84t17 -84t46 -68.5t68 -46.5t83 -17q24 0 49.5 7t50.5 20.5t46 32.5t36 43h-182v150z" />
    <glyph glyph-name="h.006" 
d="M506 732h154v-734h-154v269h-255v-269h-153v734h153v-312h255v312v0z" />
    <glyph glyph-name="i.006" horiz-adv-x="320" 
d="M84 732h152v-733h-152v733v0z" />
    <glyph glyph-name="j.006" horiz-adv-x="590" 
d="M519 736v-401q0 -44 -14 -102t-48 -110.5t-91.5 -88.5t-144.5 -36q-48 0 -95 11.5t-86 40.5l117 117q10 -10 27 -11.5t37 -1.5q35 0 59.5 10.5t40.5 27.5t24.5 38t12.5 41t4.5 37t0.5 27v401h156z" />
    <glyph glyph-name="k.006" horiz-adv-x="764" 
d="M661 734q0 -56 -7.5 -103.5t-20 -87t-28.5 -71t-32 -55.5q-39 -57 -87 -92q47 0 83 -14t62.5 -37t44.5 -52.5t30 -59.5q27 -72 32 -163h-151q0 33 -7 58.5t-18 44.5t-25 32t-29 22q-34 20 -78 23h-181v-180h-150v735h150v-334q47 0 83.5 14.5t63.5 37.5t46.5 53t32.5 62
q30 73 38 167h148z" />
    <glyph glyph-name="l.006" horiz-adv-x="625" 
d="M568 -1h-498v734h153v-580h345v-154v0z" />
    <glyph glyph-name="m.006" horiz-adv-x="930" 
d="M256 302v-303h-156v735h162l198 -502l195 502h161v-735h-156v298l-123 -298h-154l-127 303v0z" />
    <glyph glyph-name="n.006" horiz-adv-x="834" 
d="M587 258v475h156v-734h-172l-316 476v-476h-156v735h172l316 -476v0z" />
    <glyph glyph-name="o.006" horiz-adv-x="812" 
d="M419 0q-76 0 -142.5 29t-116 79t-78.5 116.5t-29 142.5t29 142.5t78.5 116.5t116 79t142.5 29t142.5 -29t116 -79t78.5 -116.5t29 -142.5t-29 -142.5t-78.5 -116.5t-116 -79t-142.5 -29zM419 583q-45 0 -84 -17t-68 -46.5t-46 -68.5t-17 -84t17 -84t46 -68.5t68 -46.5
t84 -17q44 0 83 17t68.5 46.5t46.5 68.5t17 84t-17 84t-46.5 68.5t-68.5 46.5t-83 17z" />
    <glyph glyph-name="p.006" 
d="M251 -1h-151v735h356q36 0 78 -14t77.5 -45t59.5 -81t24 -122q0 -141 -81 -219q-26 -26 -54 -40t-52.5 -21t-42 -8t-23.5 -1h-191v-184zM251 334h194h-1q11 0 28 4t32.5 18.5t27 41.5t11.5 74q0 35 -9 56.5t-22.5 33t-29 16t-27.5 4.5h-204v-248z" />
    <glyph glyph-name="q.006" horiz-adv-x="931" 
d="M833 368q0 -59 -17.5 -112t-49.5 -98l53 -52l-106 -107l-56 56q-42 -25 -89.5 -39t-99.5 -14q-75 0 -141.5 29t-116 78.5t-78.5 116t-29 142.5t29 142.5t78.5 116t116 78.5t141.5 29t141.5 -29t116 -78.5t78.5 -116t29 -142.5zM468 153q40 0 77 14l-41 41l106 107l47 -48
q25 48 25 101q0 45 -17 84t-46 68.5t-68 46.5t-83 17t-83.5 -17t-68.5 -46.5t-46 -68.5t-17 -84t17 -84t46 -68t68.5 -46t83.5 -17z" />
    <glyph glyph-name="r.006" horiz-adv-x="749" 
d="M629 260q29 -26 50 -58.5t34.5 -67t19.5 -69.5t6 -66h-75h-76q0 7 -1.5 23.5t-6.5 36.5t-15 41t-27.5 39t-43.5 29t-63 11h-181v-180h-150v735h331q4 0 22 -1.5t43.5 -9t55.5 -22.5t58 -43q83 -83 83 -228q0 -57 -17.5 -99t-46.5 -71zM431 330q12 0 31 3.5t37 14t30.5 30
t12.5 52.5q0 52 -13.5 82.5t-32 46t-37.5 20t-29 4.5h-180v-253h181z" />
    <glyph glyph-name="s.006" horiz-adv-x="687" 
d="M333 -8q-56 0 -105 18t-86.5 48t-59 70.5t-21.5 85.5h152q0 -9 8.5 -21t24 -23t37.5 -18.5t50 -7.5q45 0 71 10.5t39 23t16.5 23l3.5 10.5q0 12 -1.5 24t-9.5 22q-14 17 -48 26.5t-84 9.5q-38 0 -68.5 7t-53.5 17.5t-40 23.5t-28 26q-22 24 -34 50.5t-17 50t-5.5 41
t-0.5 25.5q0 7 2 22.5t8.5 34.5t18 40.5t31.5 41.5q73 73 203 73q128 0 200 -75q25 -26 39 -54t20 -52t7 -41t1 -21l-152 5v-2q0 12 -4 27.5t-16 29t-35 22.5t-60 9q-36 0 -57.5 -7t-33 -17t-15.5 -21t-4 -18v-7l-1 -1q0 -10 2 -20q2 -8 5 -17.5t11 -17.5q23 -23 77 -23
q142 0 219 -61.5t77 -173.5q0 -32 -15.5 -70t-49 -71t-87.5 -55t-131 -22z" />
    <glyph glyph-name="t.006" horiz-adv-x="604" 
d="M560 733v-152h-170v-582h-153v582h-170v152h493v0z" />
    <glyph glyph-name="u.006" horiz-adv-x="778" 
d="M693 733v-400q0 -29 -6 -64.5t-19.5 -72.5t-36 -72.5t-55.5 -63t-77.5 -44t-102.5 -16.5h-1q-60 0 -111 20t-89 59q-36 36 -55.5 77.5t-28.5 79t-11 65t-2 33.5v399h153v-400q0 -8 1 -24t6 -36t14 -41t25.5 -39t40.5 -29t58 -11q51 0 79.5 24t43 55t18 61t3.5 41v399h153
z" />
    <glyph glyph-name="v.006" horiz-adv-x="778" 
d="M481 0h-180l-262 733h166l186 -522l186 522h166l-262 -733v0z" />
    <glyph glyph-name="w.006" horiz-adv-x="931" 
d="M373 -1h-155l-171 735h154l96 -414l100 414h155l85 -417l116 417h155l-205 -735h-155l-80 395l-95 -395v0z" />
    <glyph glyph-name="x.006" horiz-adv-x="847" 
d="M748 733l-229 -379l214 -353h-177l-125 207l-125 -207h-177l214 353l-229 379h176l141 -234l141 234h176v0z" />
    <glyph glyph-name="y.006" 
d="M677 732l-233 -499v-232h-153v230l-234 501h165l146 -355l146 355h163v0z" />
    <glyph glyph-name="z.006" horiz-adv-x="778" 
d="M643 -2h-541l326 586h-301v149h556l-326 -585h286v-150v0z" />
    <glyph glyph-name="e.007" horiz-adv-x="667" 
d="M593 581h-343v-163h330v-153h-330v-112h343v-153h-495v733h495v-152v0z" />
    </font>
</defs>
</svg>
